HIERARCHY
ROOT Hips
{
	OFFSET	0.00	0.00	0.00
	CHANNELS 6 Xposition Yposition Zposition Zrotation Xrotation Yrotation
	JOINT Spine
	{
		OFFSET	 0.00	0.01	 0.00
		CHANNELS 3 Zrotation Xrotation Yrotation
		JOINT Spine1
		{
			OFFSET	 0.00	 2.45913012437421	 0.00
			CHANNELS 3 Zrotation Xrotation Yrotation
            JOINT Neck
            {
                OFFSET	 0.00	 2.48462964506057	 0.00
                CHANNELS 3 Zrotation Xrotation Yrotation
                JOINT Head
                {
                    OFFSET	 0.00	 0.927524780924562	 0.00
                    CHANNELS 3 Zrotation Xrotation Yrotation
                    End Site 
                    {
                        OFFSET	 0.00	 1.14999962169752	 0.00
                    }
                }
            }
			JOINT LeftShoulder
			{
				OFFSET	 0.00	 2.48462964506057	 0.00
				CHANNELS 3 Zrotation Xrotation Yrotation
				JOINT LeftUpArm
				{
					OFFSET	 0.00	 1.24881979654096	 0.00
					CHANNELS 3 Zrotation Xrotation Yrotation
					JOINT LeftForeArm
					{
						OFFSET	 0.00	2.59758046908119	 0.00
						CHANNELS 3 Zrotation Xrotation Yrotation
						JOINT LeftHand
						{
							OFFSET	 0.00	2.45542024364365	 0.00
							CHANNELS 3 Zrotation Xrotation Yrotation
							JOINT LeftHandThumb 
							{
								OFFSET	 0.00	0.00	 0.00
								CHANNELS 3 Zrotation Xrotation Yrotation
								End Site
								{
									OFFSET	 0.00	0.00	1.00000003353624
								}
							}
							JOINT L_Wrist_End 
							{
								OFFSET	 0.00	0.99999967115358	 0.00
								CHANNELS 3 Zrotation Xrotation Yrotation
								End Site 
								{
									OFFSET	 0.00	 0.00	 0.00
								}
							}
						}
					}
				}
			}
			JOINT RightShoulder
			{
				OFFSET	 0.00	 2.48462964506057	 0.00
				CHANNELS 3 Zrotation Xrotation Yrotation
				JOINT RightUpArm
				{
					OFFSET	 0.00	 1.24881979654096	 0.00
					CHANNELS 3 Zrotation Xrotation Yrotation
					JOINT RightForeArm
					{
						OFFSET	 0.00	2.59758046908119	 0.00
						CHANNELS 3 Zrotation Xrotation Yrotation
						JOINT RightHand
						{
							OFFSET	 0.00	2.45542024364365	 0.00
							CHANNELS 3 Zrotation Xrotation Yrotation
							JOINT RightHandThumb 
							{
								OFFSET	 0.00	0.00	 0.00
								CHANNELS 3 Zrotation Xrotation Yrotation
								End Site
								{
									OFFSET	 0.00	0.00	1.00000003353624
								}
							}
							JOINT R_Wrist_End 
							{
								OFFSET	 0.00	0.99999967115358	 0.00
								CHANNELS 3 Zrotation Xrotation Yrotation
								End Site 
								{
									OFFSET	 0.00	 0.00	 0.00
								}
							}
						}
					}
				}
			}
		}
	}
	JOINT LeftUpLeg
	{
		OFFSET	 1.2719394002717	 0.00	 0.00
		CHANNELS 3 Zrotation Xrotation Yrotation
		JOINT LeftLowLeg
		{
			OFFSET	 0.00	-4.3429100912261	 0.00
			CHANNELS 3 Zrotation Xrotation Yrotation
			JOINT LeftFoot
			{
				OFFSET	 0.00	-4.48767017425826	 0.00
				CHANNELS 3 Zrotation Xrotation Yrotation
				JOINT LeftToeBase
                {
                    OFFSET	 0.00	0.00	 1.51507020887566
                    CHANNELS 3 Zrotation Xrotation Yrotation
                    End Site 
                    {
                        OFFSET	 0.00	0.00	 0.75000010571191
                    }
                }
			}
		}
	}
	JOINT RightUpLeg
	{
		OFFSET	 -1.2719393604653	 0.00	 0.00
		CHANNELS 3 Zrotation Xrotation Yrotation
		JOINT RightLowLeg
		{
			OFFSET	 0.00	-4.3429100912261	 0.00
			CHANNELS 3 Zrotation Xrotation Yrotation
			JOINT RightFoot
			{
				OFFSET	 0.00	-4.48767017425826	 0.00
				CHANNELS 3 Zrotation Xrotation Yrotation
				JOINT RightToeBase
                {
                    OFFSET	 0.00	0.00	 1.51507020887566
                    CHANNELS 3 Zrotation Xrotation Yrotation
                    End Site 
                    {
                        OFFSET	 0.00	0.00	 0.749999965609858
                    }
                }   
			}
		}
	}
}
MOTION 
Frames:	18 
Frame Time: 0.02 
 -3.3642001342773438 18.253800048828126 10.386099853515624 -73.7447 83.96 65.0569 9.91028 -21.7557 -2.90795 -8.38223 34.2014 5.53966 -10.0891 22.0247 10.4424 19.796 -70.3723 23.7356 -117.156 2.96032 -8.10202 -36.4168 -1.45676 37.7577 0.0 28.8847 0.0 9.18596 -6.8531 0.0730912 0.0 0.0 0.0 0.0 0.0 0.0 120.020905 0.996103 1.8147 41.2174 4.05525 -25.1864 0.0 26.6546 0.0 -5.18497 -1.92868 10.573 0.0 0.0 0.0 0.0 0.0 0.0 7.15877 12.3724 19.3747 0.0 -0.0852748 0.0 -8.31051 8.56151 4.8858 0.0 -10.75846 0.0 7.24265 8.98317 11.8926 0.0 5.48087 0.0 18.8993 8.88014 -23.5003 0.0 -11.55551 0.0 
  -3.363819885253906 18.271400146484375 10.381199951171874 -81.5184 84.3661 72.2978 9.90054 -22.153 -2.6582 -8.42739 33.9034 5.91379 -10.1361 22.0209 10.4416 19.7004 -70.434 23.7424 -117.285 2.96895 -8.18664 -36.3014 -1.49965 37.72 0.0 28.4348 0.0 9.00268 -6.94381 0.174629 0.0 0.0 0.0 0.0 0.0 0.0 120.0811 1.00048 1.93702 41.1121 3.99783 -25.181 0.0 26.7628 0.0 -5.16693 -1.88252 10.5658 0.0 0.0 0.0 0.0 0.0 0.0 6.97556 11.4869 19.9059 0.0 0.0122653 0.0 -8.34546 8.45181 4.9176 0.0 -10.74016 0.0 7.1441 7.76274 12.9487 0.0 6.02554 0.0 19.2127 8.27024 -23.6977 0.0 -11.37061 0.0 
  -3.3614801025390624 18.2668994140625 10.380899658203125 -81.7277 84.3647 72.5298 9.86723 -22.1829 -2.69607 -8.42715 33.9374 5.91518 -10.0953 22.0995 10.3877 19.5846 -70.4128 23.7515 -117.2876 2.94976 -8.19767 -36.3016 -1.60611 37.695 0.0 28.0818 0.0 8.81258 -6.93168 0.628272 0.0 0.0 0.0 0.0 0.0 0.0 120.0957 0.977485 1.94665 41.0598 3.91735 -25.1982 0.0 26.8824 0.0 -5.23808 -1.89949 10.6344 0.0 0.0 0.0 0.0 0.0 0.0 6.96561 11.5004 19.9286 0.0 -0.022093 0.0 -8.22831 8.49608 4.91713 0.0 -10.86782 0.0 7.1402 7.73879 12.8501 0.0 6.08039 0.0 19.2203 8.24868 -23.6179 0.0 -11.3332405 0.0 
  -3.358919982910156 18.26260009765625 10.38050048828125 -81.957 84.3722 72.7847 9.86169 -22.2001 -2.70765 -8.46241 33.9235 5.87936 -10.0991 22.1411 10.4101 19.5634 -70.3443 23.7846 -117.2736 2.90385 -8.1416 -36.2908 -1.66101 37.5831 0.0 27.7396 0.0 8.9207 -7.40095 -0.774647 0.0 0.0 0.0 0.0 0.0 0.0 120.1333 0.858224 1.87599 41.0281 3.98137 -25.1784 0.0 26.9368 0.0 -5.26653 -1.85766 10.6255 0.0 0.0 0.0 0.0 0.0 0.0 6.94889 11.5027 19.9189 0.0 -0.0391749 0.0 -8.34276 8.442949 4.85691 0.0 -10.74627 0.0 7.13785 7.71123 13.0064 0.0 6.14351 0.0 19.2839 8.14826 -23.7541 0.0 -11.33009 0.0 
  -3.356440124511719 18.257900390625 10.3802001953125 -82.1285 84.3819 72.9835 9.84455 -22.2291 -2.73815 -8.49363 33.9215 5.83802 -10.0888 22.2519 10.4045 19.6092 -70.3678 23.9338 -117.2423 2.80062 -8.08393 -36.3152 -1.66031 37.5235 0.0 27.4473 0.0 8.90487 -7.57871 -1.04771 0.0 0.0 0.0 0.0 0.0 0.0 120.1827 0.863812 1.84187 40.975 3.9102 -25.1214 0.0 26.9567 0.0 -5.27449 -1.88389 10.7572 0.0 0.0 0.0 0.0 0.0 0.0 6.93134 11.5025 19.9339 0.0 -0.040398 0.0 -8.3451 8.42505 4.8131 0.0 -10.74516 0.0 7.12455 7.6997 13.0093 0.0 6.18422 0.0 19.3142 8.09809 -23.7635 0.0 -11.31917 0.0 
  -3.3541598510742188 18.253499755859377 10.37989990234375 -82.1036 84.3788 72.9752 9.83741 -22.2348 -2.75993 -8.53034 33.973 5.80677 -9.99862 22.2298 10.3365 19.5148 -70.3373 23.9106 -117.1875 2.8004 -8.13497 -36.322 -1.80921 37.5651 0.0 27.2879 0.0 9.01348 -7.5867 -1.14591 0.0 0.0 0.0 0.0 0.0 0.0 120.2107 0.819388 1.88026 40.9687 3.87292 -25.0758 0.0 26.9374 0.0 -5.28772 -1.95594 10.6149 0.0 0.0 0.0 0.0 0.0 0.0 6.92351 11.5132 19.869 0.0 -0.0148082 0.0 -8.33247 8.39361 4.86336 0.0 -10.77319 0.0 7.11546 7.7071 12.9437 0.0 6.21858 0.0 19.2937 8.11009 -23.7283 0.0 -11.37167 0.0 
  -3.3519601440429687 18.25 10.38 -82.0544 84.3733 72.9122 9.82162 -22.2123 -2.79091 -8.52022 33.919 5.76051 -9.96347 22.4568 10.2737 19.6161 -70.4548 24.1248 -117.1862 3.28543 -8.67682 -36.1545 -2.90749 37.3542 0.0 27.4434 0.0 8.77269 -7.60733 -0.795004 0.0 0.0 0.0 0.0 0.0 0.0 120.2773 0.933286 1.84151 40.8816 3.68294 -24.8945 0.0 26.9028 0.0 -5.26506 -1.96312 10.675 0.0 0.0 0.0 0.0 0.0 0.0 6.91284 11.5272 19.8347 0.0 0.0159435 0.0 -8.33116 8.36253 4.91408 0.0 -10.76473 0.0 7.10978 7.70701 12.9634 0.0 6.26476 0.0 19.303 8.090981 -23.7429 0.0 -11.36541 0.0 
  -3.349620056152344 18.245999755859376 10.37969970703125 -81.9548 84.3598 72.7791 9.785 -22.202 -2.85525 -8.48015 34.0584 5.77795 -9.96049 22.1602 10.2663 19.2727 -70.341 23.7984 -117.1892 2.72158 -8.221 -36.2957 -1.92966 37.4042 0.0 27.1189 0.0 8.70913 -7.56329 -1.10067 0.0 0.0 0.0 0.0 0.0 0.0 120.275696 0.76859 1.92783 40.8673 3.824 -24.9423 0.0 26.7759 0.0 -5.2426 -1.96394 10.7784 0.0 0.0 0.0 0.0 0.0 0.0 6.90295 11.5588 19.7986 0.0 0.0434937 0.0 -8.35541 8.31153 4.97577 0.0 -10.74603 0.0 7.10756 7.71307 12.9766 0.0 6.31864 0.0 19.3202 8.05098 -23.7291 0.0 -11.30554 0.0 
  -3.3472900390625 18.241700439453126 10.3797998046875 -81.8295 84.3467 72.6091 9.74484 -22.1914 -2.91945 -8.39363 34.0404 5.77762 -10.0463 22.3113 10.2943 19.317 -70.4189 23.9048 -117.2473 3.19882 -8.63817 -36.1317 -2.86177 37.3449 0.0 27.36 0.0 8.80134 -7.72765 -1.12566 0.0 0.0 0.0 0.0 0.0 0.0 120.281204 0.918008 1.89149 40.7905 3.6049 -24.7736 0.0 26.7126 0.0 -5.2448 -2.03607 10.7399 0.0 0.0 0.0 0.0 0.0 0.0 6.8929 11.5881 19.7371 0.0 0.0916056 0.0 -8.35703 8.26486 5.0769 0.0 -10.77566 0.0 7.10213 7.72219 12.9825 0.0 6.37077 0.0 19.2933 8.06249 -23.7196 0.0 -11.34206 0.0 
  -3.34552001953125 18.238900146484376 10.379599609375 -81.8029 84.3474 72.5618 9.67493 -22.1943 -3.01645 -8.28091 34.0793 5.80405 -10.0858 22.3503 10.2555 19.1567 -70.4406 23.7543 -117.296 3.24308 -8.66832 -36.1232 -2.92662 37.3642 0.0 27.3838 0.0 8.81144 -7.68959 -0.862127 0.0 0.0 0.0 0.0 0.0 0.0 120.2374 0.899769 1.89818 40.7823 3.59279 -24.6721 0.0 26.5757 0.0 -5.17128 -2.083 10.6652 0.0 0.0 0.0 0.0 0.0 0.0 6.88313 11.5866 19.7407 0.0 0.14275 0.0 -8.35628 8.22813 5.08763 0.0 -10.78154 0.0 7.09202 7.71472 12.9949 0.0 6.41581 0.0 19.2904 8.03963 -23.7183 0.0 -11.305901 0.0 
  -3.343169860839844 18.2347998046875 10.379300537109375 -81.7389 84.3506 72.4444 9.52077 -22.1615 -3.20882 -8.05804 34.19 5.87744 -10.3482 22.0921 10.4202 18.9268 -70.3591 23.3355 -117.4258 2.70556 -8.21665 -36.2295 -1.88948 37.479 0.0 27.2168 0.0 8.7311 -7.68521 -1.19667 0.0 0.0 0.0 0.0 0.0 0.0 120.138596 0.702759 1.90574 40.773 3.82164 -24.7791 0.0 26.2984 0.0 -5.17655 -1.9359 10.6081 0.0 0.0 0.0 0.0 0.0 0.0 6.86163 11.5892 19.667 0.0 0.225824 0.0 -8.3803 8.14577 5.21241 0.0 -10.75714 0.0 7.07395 7.70091 13.0032 0.0 6.4952 0.0 19.278 8.006741 -23.6856 0.0 -11.29304 0.0 
  -3.3411599731445314 18.2318994140625 10.379300537109375 -81.7052 84.3517 72.3279 9.42444 -22.1596 -3.31898 -7.87326 34.1796 5.94858 -10.4657 22.301 10.4133 18.8571 -70.4423 23.3029 -117.524796 3.30227 -8.70887 -36.0729 -2.89883 37.3946 0.0 27.5573 0.0 8.84285 -7.63185 -1.17456 0.0 0.0 0.0 0.0 0.0 0.0 120.0513 0.857063 1.90055 40.7549 3.57287 -24.6319 0.0 26.1741 0.0 -5.22598 -1.92127 10.6601 0.0 0.0 0.0 0.0 0.0 0.0 6.83784 11.6042 19.6714 0.0 0.280941 0.0 -8.39021 8.1094 5.28378 0.0 -10.771851 0.0 7.05722 7.67384 13.058 0.0 6.58056 0.0 19.2743 7.98782 -23.6606 0.0 -11.29821 0.0 
  -3.3385699462890623 18.22780029296875 10.379100341796875 -81.7449 84.3486 72.3238 9.32407 -22.1826 -3.46947 -7.69736 34.3417 6.01567 -10.6118 22.0408 10.4797 18.4732 -70.3072 22.8229 -117.637 2.74935 -8.19261 -36.1908 -1.74832 37.3262 0.0 27.4817 0.0 8.59468 -7.6266 -1.09411 0.0 0.0 0.0 0.0 0.0 0.0 119.965 0.696515 1.93344 40.7416 3.79274 -24.6909 0.0 26.0011 0.0 -5.04308 -2.1013 10.4612 0.0 0.0 0.0 0.0 0.0 0.0 6.8186 11.6242 19.6788 0.0 0.301773 0.0 -8.39889 8.08305 5.31491 0.0 -10.78355 0.0 7.04139 7.66621 13.0514 0.0 6.62609 0.0 19.2664 7.98316 -23.6179 0.0 -11.29385 0.0 
  -3.3358099365234377 18.223499755859375 10.379300537109375 -81.5941 84.3507 72.1496 9.23226 -22.1725 -3.60384 -7.54191 34.369 6.03268 -10.7304 22.0636 10.522 18.3566 -70.2818 22.6617 -117.751 2.74972 -8.19841 -36.1585 -1.67536 37.4129 0.0 27.6371 0.0 8.79921 -7.38722 -0.650584 0.0 0.0 0.0 0.0 0.0 0.0 119.8881 0.690992 1.91006 40.7404 3.81112 -24.8143 0.0 25.7935 0.0 -5.12408 -2.01273 10.6094 0.0 0.0 0.0 0.0 0.0 0.0 6.79858 11.6404 19.6597 0.0 0.36208 0.0 -8.43992 8.0499 5.33121 0.0 -10.81581 0.0 7.0134 7.68575 13.0044 0.0 6.64996 0.0 19.2532 8.00168 -23.5641 0.0 -11.30036 0.0 
  -3.3336199951171874 18.21989990234375 10.379300537109375 -81.8204 84.346 72.3225 9.15472 -22.1799 -3.72541 -7.36253 34.357 6.06005 -10.9486 22.1309 10.6416 18.3337 -70.2607 22.5174 -117.8586 2.73491 -8.12383 -36.1208 -1.53892 37.4019 0.0 27.9007 0.0 8.86255 -7.54085 -0.966015 0.0 0.0 0.0 0.0 0.0 0.0 119.8176 0.63625 1.9179 40.7384 3.78911 -24.8032 0.0 25.6994 0.0 -5.06578 -2.08011 10.32 0.0 0.0 0.0 0.0 0.0 0.0 6.78736 11.6419 19.6673 0.0 0.387567 0.0 -8.46071 8.01119 5.37044 0.0 -10.817141 0.0 7.00392 7.67463 13.0471 0.0 6.66456 0.0 19.2635 8.005119 -23.5574 0.0 -11.32 0.0 
  -3.3316500854492186 18.216600341796877 10.379200439453125 -81.8405 84.3327 72.2939 9.0677 -22.1528 -3.86712 -7.18438 34.3485 6.05984 -11.1625 22.1649 10.7781 18.302 -70.1896 22.3542 -117.9217 2.69854 -8.13934 -36.1008 -1.49286 37.3637 0.0 28.2773 0.0 8.67116 -7.05634 0.572786 0.0 0.0 0.0 0.0 0.0 0.0 119.7498 0.65999 1.87792 40.712 3.78895 -24.8451 0.0 25.5684 0.0 -5.03392 -2.00936 10.4338 0.0 0.0 0.0 0.0 0.0 0.0 6.77926 11.6645 19.6932 0.0 0.407428 0.0 -8.47405 7.98361 5.38997 0.0 -10.826429 0.0 7.00231 7.68332 13.1786 0.0 6.68538 0.0 19.3039 7.96693 -23.6296 0.0 -11.27668 0.0 
  -3.33010009765625 18.213299560546876 10.379300537109375 -81.8705 84.3208 72.2614 8.89313 -22.121 -4.10999 -6.85322 34.3122 6.10694 -11.4803 22.3328 10.9094 18.1685 -70.173 22.1081 -118.106 2.65536 -8.05733 -36.0098 -1.40335 37.3238 0.0 28.7354 0.0 8.87943 -6.99659 0.461353 0.0 0.0 0.0 0.0 0.0 0.0 119.6184 0.663428 1.84329 40.6646 3.75766 -24.8041 0.0 25.5226 0.0 -4.97317 -2.10179 10.1966 0.0 0.0 0.0 0.0 0.0 0.0 6.77046 11.6894 19.7172 0.0 0.430151 0.0 -8.47534 7.95327 5.41735 0.0 -10.8236 0.0 6.99276 7.68908 13.2599 0.0 6.70021 0.0 19.3444 7.96974 -23.6354 0.0 -11.2707 0.0 
  -3.329159851074219 18.210400390625 10.3793994140625 -82.1 84.312 72.46 8.66232 -22.1271 -4.42448 -6.44705 34.2868 6.17549 -11.8654 22.569 11.0672 17.8585 -70.0325 21.7467 -118.293 2.62649 -7.97681 -35.9286 -1.33512 37.2102 0.0 29.2911 0.0 9.04101 -6.89959 0.277843 0.0 0.0 0.0 0.0 0.0 0.0 119.4552 0.635277 1.80737 40.6168 3.73545 -24.707 0.0 25.5378 0.0 -4.96096 -2.17371 10.0346 0.0 0.0 0.0 0.0 0.0 0.0 6.77919 11.679 19.7479 0.0 0.4661 0.0 -8.47796 7.92366 5.40737 0.0 -10.8107605 0.0 6.99737 7.67415 13.3265 0.0 6.71906 0.0 19.3687 7.96108 -23.6618 0.0 -11.25957 0.0 
